<?xml version="1.0" encoding="UTF-8"?>
<!DOCTYPE svg PUBLIC "-//W3C//DTD SVG 1.1//EN" "http://www.w3.org/Graphics/SVG/1.1/DTD/svg11.dtd">
<!-- Creator: CorelDRAW X7 -->
<svg xmlns="http://www.w3.org/2000/svg" xml:space="preserve" width="227.528mm" height="61.707mm" version="1.1" style="shape-rendering:geometricPrecision; text-rendering:geometricPrecision; image-rendering:optimizeQuality; fill-rule:evenodd; clip-rule:evenodd"
viewBox="0 0 22276 6041"
 xmlns:xlink="http://www.w3.org/1999/xlink">
 <defs>
  <style type="text/css">
   <![CDATA[
    .fil2 {fill:#FEFEFE}
    .fil1 {fill:#2594F8}
    .fil0 {fill:#607D8B;fill-rule:nonzero}
   ]]>
  </style>
 </defs>
 <g id="Capa_x0020_1">
  <metadata id="CorelCorpID_0Corel-Layer"/>
  <g id="_1245151632">
   <path class="fil0" d="M8290 2641c0,163 -53,309 -159,439 -105,130 -260,231 -464,305 -204,73 -446,110 -726,110 -335,0 -612,-51 -830,-150 -154,-73 -279,-169 -375,-290 -97,-120 -145,-237 -145,-352 0,-66 29,-122 87,-170 58,-47 131,-70 220,-70 73,0 134,18 184,55 51,37 93,91 129,164 43,85 90,158 140,215 51,57 121,105 212,143 92,37 211,56 360,56 204,0 370,-38 497,-113 127,-76 192,-170 192,-283 0,-89 -34,-162 -103,-217 -69,-56 -159,-99 -268,-128 -108,-30 -255,-61 -437,-95 -243,-45 -448,-98 -612,-158 -165,-61 -295,-144 -392,-249 -96,-105 -144,-234 -144,-391 0,-148 50,-279 152,-395 102,-115 250,-203 443,-265 193,-62 421,-93 682,-93 208,0 388,21 541,61 152,42 278,96 379,164 100,68 173,139 220,214 46,75 69,148 69,219 0,65 -29,124 -87,176 -57,52 -130,77 -216,77 -79,0 -139,-15 -180,-46 -41,-31 -85,-83 -133,-154 -62,-101 -136,-181 -223,-238 -86,-57 -226,-85 -418,-85 -177,0 -321,30 -429,92 -110,63 -164,137 -164,224 0,54 18,100 55,140 37,39 89,72 154,101 65,28 130,50 197,66 66,16 176,39 329,70 191,36 365,75 520,118 156,42 288,95 397,156 109,61 194,139 255,232 61,94 91,209 91,345zm2760 503l-163 -338 -1381 0 -162 345c-64,135 -118,226 -163,273 -44,47 -117,71 -220,71 -86,0 -163,-26 -229,-76 -66,-50 -100,-107 -100,-170 0,-37 8,-76 23,-115 16,-39 41,-93 77,-163l869 -1750c25,-50 54,-110 89,-180 35,-71 72,-129 112,-176 39,-46 91,-84 155,-113 64,-29 143,-43 237,-43 97,0 177,14 241,43 64,29 115,66 155,111 39,45 73,94 100,146 26,52 61,122 102,209l888 1738c70,133 105,229 105,289 0,62 -33,120 -98,172 -66,52 -146,78 -239,78 -53,0 -100,-8 -139,-24 -38,-15 -70,-35 -97,-62 -26,-26 -54,-67 -84,-121 -31,-54 -56,-103 -78,-144zm-1363 -749l1015 0 -512 -1110 -503 1110zm5589 -41l0 516c0,69 -9,124 -26,165 -17,41 -48,78 -94,111 -46,33 -104,65 -176,96 -204,88 -402,152 -592,192 -190,40 -397,61 -621,61 -261,0 -500,-32 -714,-96 -215,-64 -398,-156 -549,-278 -152,-121 -268,-268 -349,-440 -82,-173 -122,-366 -122,-579 0,-210 40,-401 118,-576 79,-173 195,-321 348,-443 153,-121 339,-214 559,-278 219,-64 467,-96 746,-96 229,0 431,24 607,73 176,48 319,109 429,182 110,74 192,151 248,234 55,82 83,155 83,219 0,68 -32,126 -96,175 -64,49 -141,72 -231,72 -49,0 -97,-8 -143,-27 -46,-18 -84,-44 -115,-77 -85,-105 -156,-185 -215,-239 -59,-53 -138,-99 -237,-135 -100,-37 -227,-56 -382,-56 -159,0 -301,22 -426,66 -125,43 -232,106 -320,189 -89,82 -157,184 -205,304 -46,120 -70,253 -70,399 0,316 92,559 275,730 182,170 438,255 765,255 159,0 308,-16 448,-50 140,-33 282,-80 425,-141l0 -438 -532 0c-128,0 -226,-15 -291,-46 -66,-30 -99,-82 -99,-156 0,-60 28,-110 83,-149 54,-40 129,-59 224,-59l781 0c95,0 177,7 243,20 67,14 121,44 161,90 41,47 62,117 62,210zm1580 -57l-242 0 0 865c0,114 -31,198 -95,252 -63,54 -146,81 -247,81 -110,0 -196,-29 -256,-85 -60,-57 -90,-139 -90,-248l0 -2074c0,-117 33,-202 100,-255 66,-53 174,-79 322,-79l1119 0c155,0 287,5 397,16 110,10 209,31 297,63 106,36 201,87 283,153 81,66 144,143 186,230 42,88 64,181 64,280 0,200 -71,361 -215,481 -143,120 -360,206 -650,256 122,51 239,127 351,228 110,100 210,207 297,320 87,114 155,215 204,307 48,91 73,154 73,188 0,35 -14,70 -43,106 -28,35 -67,62 -117,82 -49,20 -107,31 -172,31 -76,0 -141,-15 -194,-44 -52,-29 -98,-65 -136,-109 -37,-44 -89,-109 -154,-194l-276 -364c-99,-133 -187,-235 -265,-305 -78,-70 -157,-118 -238,-143 -80,-26 -181,-39 -303,-39zm394 -1133l-636 0 0 742 617 0c165,0 304,-11 418,-34 112,-23 198,-61 258,-116 59,-55 89,-130 89,-225 0,-76 -24,-141 -72,-199 -48,-57 -114,-99 -199,-127 -80,-27 -239,-41 -475,-41zm4270 1980l-162 -338 -1382 0 -162 345c-63,135 -117,226 -162,273 -44,47 -118,71 -220,71 -86,0 -163,-26 -229,-76 -67,-50 -100,-107 -100,-170 0,-37 8,-76 23,-115 16,-39 41,-93 77,-163l868 -1750c26,-50 55,-110 90,-180 35,-71 72,-129 111,-176 40,-46 91,-84 155,-113 65,-29 144,-43 238,-43 96,0 176,14 240,43 64,29 116,66 155,111 40,45 73,94 100,146 27,52 62,122 103,209l888 1738c69,133 104,229 104,289 0,62 -32,120 -98,172 -66,52 -145,78 -238,78 -54,0 -100,-8 -139,-24 -38,-15 -71,-35 -98,-62 -26,-26 -53,-67 -83,-121 -31,-54 -57,-103 -79,-144zm-1362 -749l1015 0 -512 -1110 -503 1110z"/>
   <path class="fil0" d="M11452 5577l-97 0 -642 -938c5,334 11,604 0,938l-99 0 -1 -1160 75 0 665 967 -1 -969 106 0 -6 1162zm-2145 -14l-100 0 0 -1147 100 0 0 1147zm-2839 -571l0 584 -99 0 -1 -149c-66,100 -204,148 -334,148 -278,0 -448,-317 -448,-566 0,-285 128,-591 457,-591 197,0 314,74 383,240l-81 58c-38,-175 -214,-195 -306,-195 -215,0 -359,261 -361,480 -1,186 154,476 365,476 118,0 258,-89 328,-190l0 -197 -225 -4 0 -94 322 0zm15043 416l50 -93c84,92 194,163 326,162 129,-1 263,-47 270,-226 1,-49 -17,-88 -50,-118 -33,-30 -71,-51 -115,-62l-189 -49c-103,-26 -259,-96 -261,-295 -2,-213 194,-315 327,-315 198,0 239,36 363,141l-67 86c-69,-82 -140,-125 -269,-129 -114,-4 -255,65 -255,189 0,85 59,185 177,216 194,51 460,96 458,345 -1,115 -43,169 -100,217 -73,63 -176,100 -293,96 -182,-5 -268,-79 -372,-165zm-14090 10l50 -94c84,93 194,164 326,163 129,-1 263,-48 270,-226 1,-49 -17,-89 -50,-118 -33,-30 -71,-51 -115,-62l-189 -49c-103,-27 -259,-96 -261,-296 -2,-212 194,-314 327,-314 198,0 239,36 363,140l-67 86c-69,-81 -140,-125 -269,-129 -114,-3 -255,66 -255,190 0,85 59,184 177,215 194,52 460,96 458,346 -1,114 -43,169 -99,217 -74,62 -177,100 -294,96 -182,-6 -268,-80 -372,-165zm12664 158l-92 0 0 -1062 -351 0 0 -98 799 0 0 98 -356 0 0 1062zm-11398 1l-92 0 0 -1063 -351 0 0 -98 799 0 0 98 -356 0 0 1063zm10812 -328l76 71c-113,280 -535,361 -730,90 -85,-117 -128,-261 -128,-432 0,-297 167,-571 485,-567 221,3 307,144 350,252l-81 59c-51,-122 -125,-208 -266,-208 -274,0 -391,269 -391,485 0,202 127,465 384,465 150,0 199,-42 301,-215zm-867 228l0 99 -669 0 0 -1160 669 0 0 99 -568 0 0 420 474 0 0 98 -474 0 0 444 568 0zm-11298 -4l0 99 -668 0 0 -1161 668 0 0 100 -568 0 0 420 474 0 0 98 -474 0 0 444 568 0zm6386 2l0 99 -669 0 0 -1160 669 0 0 100 -569 0 0 419 475 0 0 98 -475 0 0 444 569 0zm4077 -1061l-398 725 0 437 -75 0 -1 -438 -401 -724 106 0 330 623 324 -623 115 0zm-1365 1160c-146,0 -260,-55 -342,-167 -82,-111 -123,-247 -123,-409 0,-169 43,-308 129,-418 85,-110 199,-165 340,-165 141,0 254,54 339,162 86,108 128,244 128,409 0,157 -41,295 -124,412 -83,118 -198,176 -347,176zm4 -93c115,0 205,-47 271,-139 65,-93 97,-212 97,-358 0,-150 -33,-267 -101,-350 -67,-83 -157,-125 -268,-125 -113,0 -203,45 -269,135 -67,91 -100,209 -100,355 0,142 34,258 101,348 67,89 156,134 269,134zm-6472 92c-147,0 -261,-56 -343,-167 -82,-111 -122,-248 -122,-409 0,-169 42,-308 128,-418 86,-110 200,-165 341,-165 141,0 254,54 339,162 85,108 128,244 128,408 0,158 -42,296 -124,413 -83,117 -199,176 -347,176zm3 -94c116,0 206,-46 271,-139 65,-92 98,-211 98,-358 0,-149 -34,-266 -102,-350 -67,-83 -156,-125 -268,-125 -113,0 -202,45 -269,136 -66,90 -99,208 -99,354 0,143 33,258 100,348 67,90 157,134 269,134zm10992 96c-147,0 -261,-55 -343,-167 -81,-111 -122,-247 -122,-409 0,-168 43,-308 128,-418 86,-110 200,-165 341,-165 141,0 254,54 339,162 85,109 128,245 128,409 0,158 -42,295 -124,413 -83,117 -199,175 -347,175zm3 -93c116,0 206,-46 271,-139 65,-93 98,-212 98,-358 0,-150 -34,-266 -101,-350 -68,-83 -157,-125 -269,-125 -113,0 -202,45 -269,135 -66,91 -99,209 -99,355 0,142 33,258 100,348 67,89 157,134 269,134zm-5090 90l-108 0 -233 -419 -308 0 0 419 -98 0 0 -1156 428 0c169,0 290,157 290,387 0,142 -78,290 -222,343l251 426zm-649 -517l293 0c77,0 135,-27 173,-82 38,-56 57,-124 57,-204 0,-80 -20,-143 -60,-187 -41,-45 -91,-67 -152,-67l-311 0 0 540zm-860 2l278 0c71,0 129,-25 172,-75 44,-50 66,-116 66,-199 0,-70 -20,-134 -59,-189 -39,-55 -95,-83 -169,-83l-288 0 0 546zm-2 517l-94 0 0 -1158 385 0c177,0 323,146 326,372 2,179 -110,366 -311,366l-306 0 0 420zm-2220 -98l237 0c125,0 221,-46 286,-137 65,-90 97,-210 97,-359 0,-121 -31,-229 -93,-325 -61,-97 -158,-145 -290,-145l-237 0 0 966zm-98 100l0 -1162 350 0c147,0 261,56 343,167 82,112 123,249 123,411 0,164 -40,302 -120,415 -80,112 -181,169 -303,169l-393 0zm-2135 -1336l59 5 109 -170 -77 -3 -91 168z"/>
   <path class="fil1" d="M799 0l2775 0c439,0 798,359 798,799l0 4444c0,439 -359,798 -798,798l-2775 0c-440,0 -799,-359 -799,-798l0 -4444c0,-440 359,-799 799,-799zm37 154l2700 0c356,0 647,291 647,646l0 3142 -3994 0 0 -3142c0,-355 291,-646 647,-646z"/>
   <path class="fil0" d="M3453 2611c0,168 -48,319 -144,454 -96,134 -236,239 -422,315 -185,76 -404,114 -658,114 -304,0 -555,-52 -753,-155 -140,-75 -253,-175 -340,-300 -88,-124 -132,-246 -132,-364 0,-68 27,-127 79,-176 53,-49 119,-73 200,-73 66,0 122,19 167,57 46,38 85,94 117,170 39,88 82,163 127,222 46,60 110,109 192,148 83,38 192,58 327,58 184,0 335,-39 451,-117 115,-78 173,-175 173,-292 0,-93 -31,-169 -93,-226 -63,-58 -144,-102 -243,-132 -98,-31 -231,-63 -396,-98 -221,-46 -407,-102 -555,-164 -150,-63 -268,-149 -356,-257 -87,-109 -131,-243 -131,-405 0,-153 46,-290 139,-409 92,-119 226,-210 401,-275 176,-64 382,-96 618,-96 189,0 353,22 491,64 138,43 253,99 344,169 91,70 157,144 200,222 41,77 63,153 63,226 0,67 -27,128 -79,182 -53,54 -119,81 -197,81 -72,0 -125,-16 -163,-48 -37,-33 -77,-86 -120,-159 -57,-106 -124,-188 -203,-247 -78,-59 -204,-89 -379,-89 -160,0 -291,32 -389,97 -99,64 -149,141 -149,231 0,56 17,104 50,145 34,40 81,75 140,104 58,29 118,52 178,69 61,16 160,40 299,72 173,37 331,77 472,122 141,44 261,98 360,162 99,63 175,144 231,240 55,98 83,217 83,358z"/>
   <path class="fil2" d="M1953 4935l25 0 20 0c41,0 74,33 74,74 0,161 -2,262 -2,421 3,155 -329,208 -441,213 -403,15 -649,-298 -649,-665 0,-367 298,-665 665,-665 145,0 278,46 388,125 29,17 51,37 51,70 0,40 -32,72 -73,72 -60,0 -163,-122 -366,-122 -287,0 -520,233 -520,520 0,264 157,517 521,523 104,2 227,-31 296,-96l0 -315 -287 0c-41,0 -75,-34 -75,-75l0 -6c0,-41 34,-74 75,-74l298 0z"/>
   <path class="fil2" d="M2470 4339l0 0c153,0 309,2 463,2 218,0 397,179 397,398l0 0c0,218 -179,397 -397,397l-390 0 0 429c0,40 -33,73 -73,73l0 0c-40,0 -73,-33 -73,-73l0 -1153c0,-40 33,-73 73,-73zm503 177l-428 0 0 463 428 0c117,0 213,-96 213,-213l0 -37c0,-117 -96,-213 -213,-213z"/>
  </g>
 </g>
</svg>
